<svg width="22" height="22" viewBox="0 0 22 22" fill="none" xmlns="http://www.w3.org/2000/svg">
<path d="M19.1 8.79958H6.5V6.20128C6.5 5.30398 7.1102 4.47058 7.9949 4.32478C8.25331 4.28081 8.51821 4.29372 8.77112 4.36262C9.02403 4.43152 9.25888 4.55474 9.45928 4.72371C9.65969 4.89267 9.82084 5.1033 9.9315 5.34093C10.0422 5.57856 10.0997 5.83746 10.1 6.09958H11.9C11.8996 5.59675 11.7939 5.09958 11.5897 4.64006C11.3856 4.18053 11.0875 3.76882 10.7147 3.43143C10.3419 3.09403 9.90253 2.83842 9.42496 2.68103C8.9474 2.52364 8.44218 2.46797 7.9418 2.51758C6.0707 2.69938 4.7 4.37968 4.7 6.25978V8.79958H2.9C2.66131 8.79958 2.43239 8.8944 2.2636 9.06319C2.09482 9.23197 2 9.46089 2 9.69958V11.4996C2 13.845 3.5066 15.8403 5.6 16.5846V19.5996H7.4V16.8996H14.6V19.5996H16.4V16.5846C18.4934 15.8403 20 13.845 20 11.4996V9.69958C20 9.46089 19.9052 9.23197 19.7364 9.06319C19.5676 8.8944 19.3387 8.79958 19.1 8.79958Z" fill="#A1A7B0"/>
</svg>
