<svg width="22" height="22" viewBox="0 0 22 22" fill="none" xmlns="http://www.w3.org/2000/svg">
<path d="M1.83337 17.4167V11.9167C1.83337 11.5042 1.9174 11.1299 2.08546 10.7938C2.25351 10.4577 2.47504 10.1598 2.75004 9.90004V7.33337C2.75004 6.56949 3.0174 5.92018 3.55212 5.38546C4.08685 4.85074 4.73615 4.58337 5.50004 4.58337H9.16671C9.5181 4.58337 9.84657 4.64846 10.1521 4.77862C10.4577 4.90818 10.7403 5.08754 11 5.31671C11.2598 5.08754 11.5424 4.90818 11.848 4.77862C12.1535 4.64846 12.482 4.58337 12.8334 4.58337H16.5C17.2639 4.58337 17.9132 4.85074 18.448 5.38546C18.9827 5.92018 19.25 6.56949 19.25 7.33337V9.90004C19.525 10.1598 19.7466 10.4577 19.9146 10.7938C20.0827 11.1299 20.1667 11.5042 20.1667 11.9167V17.4167H18.3334V15.5834H3.66671V17.4167H1.83337ZM11.9167 9.16671H17.4167V7.33337C17.4167 7.07365 17.3287 6.85579 17.1527 6.67979C16.9773 6.5044 16.7598 6.41671 16.5 6.41671H12.8334C12.5737 6.41671 12.3561 6.5044 12.1807 6.67979C12.0047 6.85579 11.9167 7.07365 11.9167 7.33337V9.16671ZM4.58337 9.16671H10.0834V7.33337C10.0834 7.07365 9.99568 6.85579 9.82029 6.67979C9.64429 6.5044 9.42643 6.41671 9.16671 6.41671H5.50004C5.24032 6.41671 5.02246 6.5044 4.84646 6.67979C4.67107 6.85579 4.58337 7.07365 4.58337 7.33337V9.16671Z" fill="#A1A7B0"/>
</svg>
